<svg xmlns="http://www.w3.org/2000/svg" viewBox="0 0 100 100">
  <defs>
    <linearGradient id="gradient" x1="0%" y1="0%" x2="100%" y2="100%">
      <stop offset="0%" style="stop-color:#22c55e;stop-opacity:1" />
      <stop offset="100%" style="stop-color:#16a34a;stop-opacity:1" />
    </linearGradient>
  </defs>
  <!-- Shopping Bag Icon -->
  <path d="M30 25 L30 20 C30 12 36 6 44 6 L56 6 C64 6 70 12 70 20 L70 25 L80 25 C85 25 90 30 90 35 L90 85 C90 90 85 95 80 95 L20 95 C15 95 10 90 10 85 L10 35 C10 30 15 25 20 25 Z" fill="url(#gradient)" stroke="#ffffff" stroke-width="2"/>
  <path d="M30 25 L30 20 C30 12 36 6 44 6 L56 6 C64 6 70 12 70 20 L70 25" fill="none" stroke="#ffffff" stroke-width="2"/>
  <!-- Handle -->
  <path d="M25 25 L25 15 C25 10 29 6 34 6 L66 6 C71 6 75 10 75 15 L75 25" fill="none" stroke="#ffffff" stroke-width="2" stroke-linecap="round"/>
</svg>
